<?xml version="1.0" encoding="UTF-8" standalone="no"?>
<!-- Created with Inkscape (http://www.inkscape.org/) -->

<svg
   xmlns:dc="http://purl.org/dc/elements/1.1/"
   xmlns:cc="http://creativecommons.org/ns#"
   xmlns:rdf="http://www.w3.org/1999/02/22-rdf-syntax-ns#"
   xmlns:svg="http://www.w3.org/2000/svg"
   xmlns="http://www.w3.org/2000/svg"
   xmlns:sodipodi="http://sodipodi.sourceforge.net/DTD/sodipodi-0.dtd"
   xmlns:inkscape="http://www.inkscape.org/namespaces/inkscape"
   width="32"
   height="32"
   viewBox="0 0 32 32.000001"
   id="svg4244"
   version="1.1"
   inkscape:version="0.91 r13725"
   sodipodi:docname="17.svg">
  <defs
     id="defs4246" />
  <sodipodi:namedview
     id="base"
     pagecolor="#ffffff"
     bordercolor="#666666"
     borderopacity="1.0"
     inkscape:pageopacity="0.0"
     inkscape:pageshadow="2"
     inkscape:zoom="11.2"
     inkscape:cx="6.5419882"
     inkscape:cy="12.57937"
     inkscape:document-units="px"
     inkscape:current-layer="g4783"
     showgrid="true"
     units="px"
     inkscape:window-width="1366"
     inkscape:window-height="705"
     inkscape:window-x="-8"
     inkscape:window-y="-8"
     inkscape:window-maximized="1"
     inkscape:snap-bbox="true"
     inkscape:bbox-paths="true"
     inkscape:bbox-nodes="true"
     inkscape:snap-bbox-edge-midpoints="true"
     inkscape:snap-bbox-midpoints="true">
    <inkscape:grid
       type="xygrid"
       id="grid4252" />
  </sodipodi:namedview>
  <metadata
     id="metadata4249">
    <rdf:RDF>
      <cc:Work
         rdf:about="">
        <dc:format>image/svg+xml</dc:format>
        <dc:type
           rdf:resource="http://purl.org/dc/dcmitype/StillImage" />
        <dc:title></dc:title>
      </cc:Work>
    </rdf:RDF>
  </metadata>
  <g
     inkscape:label="Layer 1"
     inkscape:groupmode="layer"
     id="layer1"
     transform="translate(0,-1020.3622)">
    <g
       id="g4783"
       transform="translate(-4.2590071,-3.0333347)">
      <g
         id="g6849">
        <path
           id="rect4982"
           d="m 18.259007,1045.3955 4,0 0,10 -4,0 z"
           style="fill:#b48966;fill-opacity:1;stroke:none;stroke-width:3;stroke-linecap:round;stroke-linejoin:round;stroke-opacity:1" />
        <path
           id="rect4860"
           d="m 20.235569,1025.3955 a 0.5,0.5 0 0 0 -0.410156,0.25 l -4.5,7 a 0.5,0.5 0 0 0 0,0.5 0.5,0.5 0 0 0 0.433594,0.25 l 4.5,0 4.5,0 a 0.5,0.5 0 0 0 0.433594,-0.25 0.5,0.5 0 0 0 0,-0.5 l -4.5,-7 a 0.5,0.5 0 0 0 -0.433594,-0.25 0.5,0.5 0 0 0 -0.02344,0 z"
           style="fill:#00c379;fill-opacity:1;stroke:none;stroke-width:3;stroke-linecap:round;stroke-linejoin:round;stroke-opacity:1"
           inkscape:connector-curvature="0" />
        <path
           id="path4942"
           d="m 20.225804,1029.1963 a 0.69999995,0.69999995 0 0 0 -0.572266,0.3496 l -6.300781,9.7988 a 0.69999995,0.69999995 0 0 0 0,0.7012 0.69999995,0.69999995 0 0 0 0.605469,0.3496 l 6.300781,0 6.300781,0 a 0.69999995,0.69999995 0 0 0 0.605469,-0.3496 0.69999995,0.69999995 0 0 0 0,-0.7012 l -6.300781,-9.7988 a 0.69999995,0.69999995 0 0 0 -0.605469,-0.3496 0.69999995,0.69999995 0 0 0 -0.0332,0 z"
           style="fill:#00c379;fill-opacity:1;stroke:none;stroke-width:3;stroke-linecap:round;stroke-linejoin:round;stroke-opacity:1"
           inkscape:connector-curvature="0" />
        <path
           id="path4954"
           d="m 20.259007,1032.9951 a 0.89999995,0.89999995 0 0 0 -0.779297,0.4512 l -8.099609,12.5996 a 0.89999995,0.89999995 0 0 0 0,0.9004 0.89999995,0.89999995 0 0 0 0.779297,0.4492 l 8.099609,0 8.099609,0 a 0.89999995,0.89999995 0 0 0 0.779297,-0.4492 0.89999995,0.89999995 0 0 0 0,-0.9004 l -8.099609,-12.5996 a 0.89999995,0.89999995 0 0 0 -0.779297,-0.4512 z"
           style="fill:#00c379;fill-opacity:1;stroke:none;stroke-width:3;stroke-linecap:round;stroke-linejoin:round;stroke-opacity:1"
           inkscape:connector-curvature="0" />
        <path
           id="path5048"
           d="m 16.236068,1057.2352 c -0.161935,0.087 -2.341628,-1.7195 -2.524541,-1.7387 -0.176263,-0.018 -2.575831,1.3116 -2.70397,1.1891 -0.132974,-0.127 0.911705,-2.7583 0.873466,-2.9382 -0.03685,-0.1734 -2.0433749,-2.0445 -1.9665225,-2.2042 0.079752,-0.1657 2.9050925,0.015 3.0643725,-0.077 0.153489,-0.089 1.312956,-2.5751 1.488593,-2.5514 0.182263,0.025 0.88374,2.7675 1.02042,2.8906 0.131711,0.1186 2.854826,0.4529 2.886523,0.6273 0.03289,0.1809 -2.358911,1.6956 -2.433718,1.8637 -0.07209,0.1619 0.451424,2.855 0.295377,2.9391 z"
           style="fill:#e6001f;fill-opacity:1;stroke:none;stroke-width:1;stroke-linecap:round;stroke-linejoin:round;stroke-opacity:1"
           transform="matrix(0.36841044,-0.0383526,0.0383526,0.36841044,-25.298422,637.51934)" />
        <path
           id="path5050"
           d="m 19.259007,1028.8955 a 0.5,0.5 0 0 1 -0.5,0.5 0.5,0.5 0 0 1 -0.5,-0.5 0.5,0.5 0 0 1 0.5,-0.5 0.5,0.5 0 0 1 0.5,0.5 z"
           style="fill:#e6001f;fill-opacity:1;stroke:none;stroke-width:3;stroke-linecap:round;stroke-linejoin:round;stroke-opacity:1" />
        <path
           id="circle5052"
           d="m 23.259007,1031.8955 a 0.5,0.5 0 0 1 -0.5,0.5 0.5,0.5 0 0 1 -0.5,-0.5 0.5,0.5 0 0 1 0.5,-0.5 0.5,0.5 0 0 1 0.5,0.5 z"
           style="fill:#ff9a00;fill-opacity:1;stroke:none;stroke-width:3;stroke-linecap:round;stroke-linejoin:round;stroke-opacity:1" />
        <path
           id="circle5054"
           d="m 17.759007,1035.8955 a 0.5,0.5 0 0 1 -0.5,0.5 0.5,0.5 0 0 1 -0.5,-0.5 0.5,0.5 0 0 1 0.5,-0.5 0.5,0.5 0 0 1 0.5,0.5 z"
           style="fill:#e6001f;fill-opacity:1;stroke:none;stroke-width:3;stroke-linecap:round;stroke-linejoin:round;stroke-opacity:1" />
        <path
           id="circle5056"
           d="m 25.259007,1038.8955 a 0.5,0.5 0 0 1 -0.5,0.5 0.5,0.5 0 0 1 -0.5,-0.5 0.5,0.5 0 0 1 0.5,-0.5 0.5,0.5 0 0 1 0.5,0.5 z"
           style="fill:#ff9a00;fill-opacity:1;stroke:none;stroke-width:3;stroke-linecap:round;stroke-linejoin:round;stroke-opacity:1" />
        <path
           id="circle5058"
           d="m 21.259007,1037.3955 a 0.5,0.5 0 0 1 -0.5,0.5 0.5,0.5 0 0 1 -0.5,-0.5 0.5,0.5 0 0 1 0.5,-0.5 0.5,0.5 0 0 1 0.5,0.5 z"
           style="fill:#006ef4;fill-opacity:1;stroke:none;stroke-width:3;stroke-linecap:round;stroke-linejoin:round;stroke-opacity:1" />
        <path
           id="circle5060"
           d="m 16.259007,1038.8955 a 0.5,0.5 0 0 1 -0.5,0.5 0.5,0.5 0 0 1 -0.5,-0.5 0.5,0.5 0 0 1 0.5,-0.5 0.5,0.5 0 0 1 0.5,0.5 z"
           style="fill:#00a654;fill-opacity:1;stroke:none;stroke-width:3;stroke-linecap:round;stroke-linejoin:round;stroke-opacity:1" />
        <path
           id="circle5062"
           d="m 24.259007,1042.8955 a 0.5,0.5 0 0 1 -0.5,0.5 0.5,0.5 0 0 1 -0.5,-0.5 0.5,0.5 0 0 1 0.5,-0.5 0.5,0.5 0 0 1 0.5,0.5 z"
           style="fill:#006ef4;fill-opacity:1;stroke:none;stroke-width:3;stroke-linecap:round;stroke-linejoin:round;stroke-opacity:1" />
        <path
           id="circle5064"
           d="m 16.259007,1042.8955 a 0.5,0.5 0 0 1 -0.5,0.5 0.5,0.5 0 0 1 -0.5,-0.5 0.5,0.5 0 0 1 0.5,-0.5 0.5,0.5 0 0 1 0.5,0.5 z"
           style="fill:#e6001f;fill-opacity:1;stroke:none;stroke-width:3;stroke-linecap:round;stroke-linejoin:round;stroke-opacity:1" />
        <path
           id="circle5066"
           d="m 21.259007,1044.8955 a 0.5,0.5 0 0 1 -0.5,0.5 0.5,0.5 0 0 1 -0.5,-0.5 0.5,0.5 0 0 1 0.5,-0.5 0.5,0.5 0 0 1 0.5,0.5 z"
           style="fill:#00a654;fill-opacity:1;stroke:none;stroke-width:3;stroke-linecap:round;stroke-linejoin:round;stroke-opacity:1" />
        <path
           id="circle5068"
           d="m 27.259007,1045.8955 a 0.5,0.5 0 0 1 -0.5,0.5 0.5,0.5 0 0 1 -0.5,-0.5 0.5,0.5 0 0 1 0.5,-0.5 0.5,0.5 0 0 1 0.5,0.5 z"
           style="fill:#ff9a00;fill-opacity:1;stroke:none;stroke-width:3;stroke-linecap:round;stroke-linejoin:round;stroke-opacity:1" />
        <path
           id="path5140"
           d="m 17.178929,1033.3955 -0.644531,1 7.449218,0 -0.644531,-1 -6.160156,0 z"
           style="fill:#00a654;fill-opacity:1;stroke:none;stroke-width:3;stroke-linecap:round;stroke-linejoin:round;stroke-opacity:1"
           inkscape:connector-curvature="0" />
        <path
           id="path5142"
           d="m 15.012913,1040.3955 -0.642578,1 11.777344,0 -0.642578,-1 -10.492188,0 z"
           style="fill:#00a654;fill-opacity:1;stroke:none;stroke-width:3;stroke-linecap:round;stroke-linejoin:round;stroke-opacity:1"
           inkscape:connector-curvature="0" />
        <path
           id="circle5150"
           d="m 14.259007,1045.8955 a 0.5,0.5 0 0 1 -0.5,0.5 0.5,0.5 0 0 1 -0.5,-0.5 0.5,0.5 0 0 1 0.5,-0.5 0.5,0.5 0 0 1 0.5,0.5 z"
           style="fill:#006ef4;fill-opacity:1;stroke:none;stroke-width:3;stroke-linecap:round;stroke-linejoin:round;stroke-opacity:1" />
        <path
           id="rect5152"
           d="m 18.259007,1047.3955 4,0 0,1 -4,0 z"
           style="fill:#8a6845;fill-opacity:1;stroke:none;stroke-width:3;stroke-linecap:round;stroke-linejoin:round;stroke-opacity:1" />
      </g>
    </g>
  </g>
</svg>
